<?xml version='1.0' encoding='iso-8859-1'?>
<svg version="1.1" xmlns="http://www.w3.org/2000/svg" viewBox="0 0 137.144 137.144" xmlns:xlink="http://www.w3.org/1999/xlink" enable-background="new 0 0 137.144 137.144">
  <g>
    <g>
      <path d="m89.144,96.001c-3.787,0-6.857,3.07-6.857,6.857 0,3.788 3.07,6.857 6.857,6.857 3.787,0 6.857-3.07 6.857-6.857 0-3.787-3.07-6.857-6.857-6.857zm-34.286,0c-3.787,0-6.857,3.07-6.857,6.857 0,3.788 3.07,6.857 6.857,6.857 3.787,0 6.857-3.07 6.857-6.857 7.10543e-15-3.787-3.07-6.857-6.857-6.857zm-10.715-61.715h-23.571l6.857,6.857h6.75l1.393,6.857h0.086l5.485,27.43 2.572,13.714h56.786l1.286-6.857h-52.072l-1.286-6.857h54.429l6.857-34.286h-63.643l-1.929-6.858zm65.572-34.286h-82.286c-15.149,0-27.429,12.28-27.429,27.429v82.286c0,15.149 12.28,27.429 27.429,27.429h82.286c15.148,0 27.429-12.28 27.429-27.429v-82.286c0-15.149-12.28-27.429-27.429-27.429zm13.715,102.858c0,11.362-9.21,20.572-20.571,20.572h-68.573c-11.362,0-20.572-9.21-20.572-20.572v-68.572c0-11.362 9.21-20.572 20.572-20.572h68.572c11.361,0 20.571,9.21 20.571,20.572v68.572z"/>
    </g>
  </g>
</svg>
